<svg width="40" height="40" viewBox="0 0 40 40" fill="none" xmlns="http://www.w3.org/2000/svg">
<path d="M34.8418 15.5508C35.271 15.1816 35.994 15.4319 35.9941 15.998C35.9941 24.8337 28.8317 31.996 19.9961 31.9961C17.4211 31.9961 14.9871 31.3876 12.832 30.3066C12.3462 30.0631 11.7486 30.1764 11.415 30.6055L10.9854 31.1582C10.6492 31.5911 10.6878 32.2071 11.0752 32.5947L11.2275 32.7471C11.6523 33.1718 11.6522 33.8604 11.2275 34.2852L11.0273 34.4854C10.6608 34.8519 10.6041 35.427 10.8916 35.8584L11.4082 36.6328C11.7356 37.124 11.6109 37.7866 11.1279 38.126L10.3965 38.6396L9.20605 39.4766C8.83117 39.7396 8.33103 39.7396 7.95605 39.4766L5.62402 37.8408C5.33391 37.6372 5.16113 37.3047 5.16113 36.9502V23.958C5.16124 23.1034 6.15119 22.5072 6.98047 22.7139C7.38921 22.8158 7.83487 22.8993 8.3125 22.9639C8.40084 22.9758 8.49049 22.9874 8.58105 22.998C9.59271 23.1171 10.7427 23.157 11.9971 23.1152C12.0266 23.1143 12.0554 23.1266 12.0752 23.1484C14.028 25.3102 16.8535 26.6689 19.9961 26.6689C24.8932 26.6689 29.0203 23.3698 30.2754 18.873C30.3629 18.5596 30.5706 18.2908 30.8594 18.1406C32.4778 17.2999 33.8318 16.4195 34.8418 15.5508ZM19.998 0C25.8895 0 31.038 3.18422 33.8145 7.92578C34.2943 8.74544 33.4225 9.71443 32.4805 9.59277C31.4583 9.46079 30.2891 9.41269 29.0078 9.4502C28.6534 9.46051 28.3156 9.30259 28.084 9.03418C26.1271 6.76451 23.2299 5.32715 19.998 5.32715C16.8133 5.32732 13.9541 6.72293 11.999 8.93555C10.7114 10.3929 9.81596 12.2048 9.47754 14.2061C9.41879 14.5536 9.2136 14.8622 8.9082 15.0381C8.79859 15.1012 8.69049 15.1651 8.58398 15.2285C7.11906 16.1009 5.95179 16.9975 5.16406 17.8652C4.83865 18.2237 4.12745 18.0851 4.0791 17.6035C4.02653 17.0757 4 16.5397 4 15.998C4.00002 13.8759 4.4137 11.8502 5.16406 9.99707C5.95735 8.03801 7.12698 6.27151 8.58398 4.78809C9.59435 3.75941 10.7427 2.86642 11.999 2.13965C14.352 0.778513 17.0843 0.000103839 19.998 0Z" fill="#1877F2"/>
</svg>
