<svg width="32" height="40" viewBox="0 0 32 40" fill="none" xmlns="http://www.w3.org/2000/svg">
<g clip-path="url(#clip0_3489_2138)">
<path d="M30.8418 15.5508C31.271 15.1816 31.9937 15.4321 31.9941 15.998C31.9941 24.8337 24.8317 31.997 15.9961 31.9971C13.4211 31.9971 10.9872 31.3876 8.83203 30.3066C8.34602 30.063 7.7485 30.177 7.41504 30.6064L6.98535 31.1592C6.64921 31.5922 6.68766 32.2081 7.0752 32.5957L7.22754 32.748C7.65213 33.1728 7.65225 33.8614 7.22754 34.2861L7.02734 34.4863C6.66096 34.8529 6.60417 35.4271 6.8916 35.8584L7.4082 36.6328C7.73568 37.124 7.61098 37.7876 7.12793 38.127L6.39648 38.6406L5.20605 39.4766C4.83118 39.7397 4.33205 39.7395 3.95703 39.4766L1.62402 37.8408C1.33399 37.6372 1.16113 37.3046 1.16113 36.9502V23.958C1.16148 23.1035 2.15128 22.5081 2.98047 22.7148C3.38921 22.8168 3.83487 22.9003 4.3125 22.9648C4.40102 22.9768 4.49127 22.9883 4.58203 22.999C5.59359 23.1181 6.74289 23.157 7.99707 23.1152C8.02659 23.1143 8.05535 23.1266 8.0752 23.1484C10.028 25.3104 12.8534 26.6689 15.9961 26.6689C20.8933 26.6689 25.0203 23.3698 26.2754 18.873C26.363 18.5596 26.5706 18.2908 26.8594 18.1406C28.4779 17.2998 29.8318 16.4196 30.8418 15.5508ZM15.998 0C21.8894 0 27.038 3.18427 29.8145 7.92578C30.2944 8.74547 29.4225 9.71541 28.4805 9.59375C27.4583 9.46175 26.2891 9.41269 25.0078 9.4502C24.6533 9.46054 24.3156 9.30274 24.084 9.03418C22.1271 6.76447 19.23 5.32715 15.998 5.32715C12.8133 5.32729 9.95411 6.72291 7.99902 8.93555C6.71123 10.393 5.81592 12.2055 5.47754 14.207C5.41875 14.5545 5.21354 14.8622 4.9082 15.0381C4.79852 15.1013 4.69055 15.1651 4.58398 15.2285C3.11908 16.1009 1.95182 16.9975 1.16406 17.8652C0.838567 18.2238 0.127119 18.0854 0.0791016 17.6035C0.0265233 17.0757 0 16.5397 0 15.998C5.96985e-05 13.876 0.413742 11.8501 1.16406 9.99707C1.95735 8.03812 3.12704 6.27144 4.58398 4.78809C5.59424 3.75955 6.74285 2.86733 7.99902 2.14062C10.352 0.779477 13.0842 8.91584e-05 15.998 0Z" fill="#1877F2"/>
</g>
<defs>
<clipPath id="clip0_3489_2138">
<rect width="32" height="40" fill="white"/>
</clipPath>
</defs>
</svg>
