<svg width="24" height="24" viewBox="0 0 24 24" fill="none" xmlns="http://www.w3.org/2000/svg">
<g clip-path="url(#clip0_3489_2147)">
<path fill-rule="evenodd" clip-rule="evenodd" d="M4.1684 8.53565C4.1684 6.45859 4.99351 4.46661 6.46221 2.99791C7.93091 1.52921 9.92289 0.704102 11.9999 0.704102C14.077 0.704102 16.069 1.52921 17.5377 2.99791C19.0064 4.46661 19.8315 6.45859 19.8315 8.53565V12.7468L21.8699 16.8237C21.9638 17.0113 22.0081 17.2198 21.9987 17.4294C21.9892 17.639 21.9264 17.8427 21.8161 18.0212C21.7058 18.1996 21.5517 18.3469 21.3684 18.4491C21.1852 18.5512 20.9788 18.6048 20.769 18.6048H16.3341C16.0853 19.565 15.5246 20.4153 14.7402 21.0224C13.9557 21.6295 12.9919 21.9589 11.9999 21.9589C11.008 21.9589 10.0442 21.6295 9.25973 21.0224C8.47527 20.4153 7.91461 19.565 7.66575 18.6048H3.23085C3.02106 18.6048 2.81473 18.5512 2.63148 18.4491C2.44823 18.3469 2.29413 18.1996 2.18383 18.0212C2.07352 17.8427 2.01067 17.639 2.00124 17.4294C1.99182 17.2198 2.03612 17.0113 2.12996 16.8237L4.1684 12.7468V8.53565ZM10.0622 18.6048C10.2586 18.9449 10.5411 19.2274 10.8812 19.4237C11.2213 19.6201 11.6072 19.7235 11.9999 19.7235C12.3927 19.7235 12.7785 19.6201 13.1187 19.4237C13.4588 19.2274 13.7413 18.9449 13.9377 18.6048H10.0622ZM11.9999 2.94169C10.5163 2.94169 9.09349 3.53105 8.04442 4.58012C6.99535 5.62919 6.40599 7.05204 6.40599 8.53565V12.7468C6.40596 13.094 6.32514 13.4364 6.16992 13.747L4.86093 16.3672H19.1401L17.8311 13.747C17.6755 13.4365 17.5943 13.0941 17.5939 12.7468V8.53565C17.5939 7.05204 17.0045 5.62919 15.9555 4.58012C14.9064 3.53105 13.4836 2.94169 11.9999 2.94169Z" fill="#374A66"/>
</g>
<defs>
<clipPath id="clip0_3489_2147">
<rect width="24" height="24" fill="white"/>
</clipPath>
</defs>
</svg>
