<svg width="933" height="931" viewBox="0 0 933 931" fill="none" xmlns="http://www.w3.org/2000/svg">
<g clip-path="url(#clip0_3571_2322)">
<path d="M561.564 425.536C596.205 508.593 626.356 594.051 647.216 681.681C655.09 714.772 661.725 748.294 665.19 782.153C667.631 806.017 669.141 830.932 664.691 854.661C662.264 867.584 657.437 883.92 644.303 889.802C632.019 895.292 617.928 888.831 607.451 882.302C588.627 870.566 572.891 853.825 558.53 837.138C538.02 813.301 519.857 787.468 502.8 761.082C457.129 690.436 419.036 614.812 385.312 537.826C348.419 453.609 316.434 366.788 292.972 277.823C283.695 242.641 275.725 207.015 270.574 170.984C266.826 144.746 264.21 117.834 266.394 91.3397C267.635 76.1771 270.224 57.3048 281.699 46.0813C291.151 36.8408 304.393 38.3247 315.598 43.3294C333.424 51.3019 348.365 65.655 361.647 79.617C381.792 100.81 399.443 124.363 415.961 148.442C461.821 215.311 499.685 287.765 533.476 361.352C543.225 382.585 552.583 403.993 561.604 425.55C562.427 427.519 565.69 426.656 564.854 424.66C530.645 342.83 491.716 262.512 445.047 186.996C427.463 158.546 408.72 130.716 387.793 104.6C372.515 85.539 355.97 66.8152 336.391 52.0573C325.024 43.4913 310.38 34.3587 295.466 35.9909C281.874 37.4748 273.541 48.6444 269.091 60.6638C261.783 80.3724 261.742 102.833 262.619 123.54C263.967 155.376 269.105 187.05 275.483 218.225C293.268 305.018 321.626 389.748 354.244 471.982C388.022 557.157 427.018 640.659 473.418 719.722C491.473 750.479 510.701 780.629 532.033 809.227C548.039 830.676 565.191 851.734 585.256 869.554C604.349 886.511 640.433 910.968 659.311 880.265C668.979 864.536 670.382 843.991 670.719 826.022C671.285 796.655 667.455 767.207 662.439 738.338C647.89 654.472 621.798 572.468 591.917 492.932C583.3 470.012 574.266 447.255 564.841 424.673C564.018 422.704 560.755 423.567 561.591 425.563L561.564 425.536Z" fill="white" fill-opacity="0.05"/>
<path d="M167.703 590.625C148.812 545.232 134.788 497.815 126.738 449.292C119.335 404.708 116.962 359.18 120.738 314.111C124.176 273.115 132.806 232.376 147.949 194.078C161.689 159.355 181.026 126.589 206.497 99.1772C230.917 72.899 260.879 51.9493 294.36 38.9182C325.374 26.8448 358.721 21.7187 391.932 23.1351C426.775 24.619 461.093 33.131 493.293 46.3376C528.622 60.8256 561.577 81.0064 591.512 104.641C624.198 130.433 653.486 160.448 679.254 193.12C707.274 228.639 731.128 267.409 750.788 308.135C772.241 352.583 788.759 399.474 799.601 447.633C809.741 492.702 814.892 538.986 813.921 585.202C813.044 627.371 807.057 669.567 794.558 709.902C783.325 746.162 766.699 780.953 743.762 811.278C722.012 840.025 694.464 864.32 662.547 881.169C632.531 897.006 599.185 906.003 565.326 907.771C531.062 909.565 496.732 904.169 464.154 893.633C428.839 882.207 395.6 864.846 365.099 843.802C331.361 820.532 300.887 792.662 273.811 761.946C244.442 728.639 219.065 691.879 197.719 652.961C186.622 632.727 176.616 611.898 167.703 590.611C166.881 588.642 163.617 589.505 164.454 591.502C182.468 634.507 204.798 675.665 231.632 713.8C256.402 748.995 284.908 781.668 317.095 810.28C346.598 836.504 379.23 859.45 414.64 876.973C446.651 892.824 480.969 904.277 516.419 909.039C549.792 913.517 583.974 911.858 616.512 902.955C650.506 893.647 682.099 876.609 708.784 853.609C736.926 829.354 759.269 798.867 775.868 765.736C793.964 729.597 805.466 690.355 811.656 650.493C818.506 606.354 819.031 561.352 814.42 516.957C809.377 468.421 798.293 420.572 782.071 374.572C766.092 329.26 745.259 285.593 719.761 244.854C696.352 207.446 668.966 172.44 637.723 141.252C609.271 112.856 577.543 87.5355 542.821 67.2063C511.268 48.7388 477.099 34.3181 441.365 26.3592C408.302 18.9937 373.971 17.294 340.49 22.7978C306.132 28.4501 273.15 41.7915 244.536 61.6485C214.574 82.4363 189.777 109.956 170.67 140.942C149.985 174.504 135.88 211.912 127.129 250.277C117.448 292.783 114.211 336.692 116.099 380.211C118.162 427.965 126.374 475.408 139.67 521.301C146.587 545.164 154.893 568.582 164.44 591.515C165.263 593.485 168.526 592.621 167.69 590.625H167.703Z" fill="white" fill-opacity="0.05"/>
<path d="M420.815 357.21C504.606 322.231 591.283 292.513 680.211 273.654C713.935 266.505 748.131 260.853 782.583 258.897C806.842 257.507 832.151 257.399 855.803 263.753C869.543 267.436 885.212 274.248 890.956 288.345C896.377 301.646 891.037 316.687 884.47 328.666C873.548 348.59 857.367 365.507 840.889 380.899C817.629 402.631 792.076 421.84 765.823 439.755C696.258 487.225 620.854 526.238 543.899 560.205C459.286 597.545 371.571 629.152 281.591 650.857C245.939 659.463 209.787 666.545 173.286 670.309C146.546 673.061 118.904 674.545 92.2185 670.417C76.2397 667.935 57.2944 663.402 46.5339 650.223C37.7422 639.444 38.8614 625.442 43.527 613.085C50.6197 594.321 64.5084 578.133 78.2084 563.861C98.7718 542.439 122.073 523.648 146.047 506.205C211.756 458.384 283.978 419.398 357.547 385.175C378.448 375.449 399.551 366.141 420.815 357.251C424.753 355.605 423.027 349.076 419.022 350.749C337.078 385.04 256.847 424.767 182.266 473.196C153.72 491.731 125.902 511.615 100.147 533.914C81.2019 550.317 62.7824 568.218 48.7588 589.141C39.8727 602.374 31.5395 618.724 33.3464 635.182C35.0589 650.681 46.1025 661.824 59.7485 668.191C80.0287 677.648 103.613 679.401 125.673 679.577C158.021 679.833 190.397 675.746 222.22 670.201C310.326 654.823 396.395 627.088 479.472 594.375C564.503 560.893 647.66 521.436 725.68 473.709C756.761 454.688 787.074 434.278 815.566 411.547C836.938 394.51 857.745 376.069 874.869 354.661C886.142 340.577 897.24 324.12 899.519 305.787C901.366 290.948 895.258 277.607 883.284 268.785C867.453 257.143 846.121 253.892 827.041 252.368C797.308 249.98 767.238 252.651 737.775 256.698C652.232 268.447 568.387 293.862 487.576 323.742C464.531 332.268 441.689 341.292 419.009 350.749C415.058 352.395 416.797 358.924 420.802 357.251L420.815 357.21Z" fill="white" fill-opacity="0.05"/>
<path d="M890.714 287.738C909.147 332.052 920.864 379.091 924.761 426.953C928.524 473.142 925.22 519.83 914.985 565.021C904.751 610.212 888.003 652.988 865.161 692.81C842.103 733.01 813.018 769.621 779.064 801.147C743.992 833.698 703.809 860.583 660.471 880.831C617.133 901.079 569.196 915.068 521.004 920.909C474.739 926.521 427.625 925.105 381.806 916.579C336.782 908.202 293.026 893.147 252.438 871.941C211.473 850.546 173.798 823.014 141.045 790.382C107.389 756.833 79.1392 718.036 57.443 675.759C35.302 632.645 20.0243 586.025 12.3653 538.163C5.00293 492.122 4.86809 444.827 11.8664 398.732C18.8647 352.637 32.4433 308.971 52.3865 267.611C72.3296 226.251 98.6508 187.522 130.083 153.743C162.202 119.223 199.607 89.7745 240.68 66.599C281.753 43.4235 329.42 25.4011 377.235 15.7424C423.256 6.4479 470.68 4.38396 517.349 9.44264C563.155 14.4069 608.341 26.3859 650.614 44.7455C692.86 63.0917 732.396 87.7241 767.32 117.779C802.999 148.469 833.864 184.648 858.473 224.781C870.811 244.907 881.612 265.979 890.727 287.738C892.386 291.677 898.912 289.95 897.227 285.944C878.362 240.928 852.756 199.002 820.96 161.945C790.243 126.157 753.957 95.1705 713.895 70.3087C674.373 45.7707 631.116 27.1818 586.119 15.3647C541.122 3.54759 493.455 -1.65948 446.557 0.471909C397.893 2.68424 349.633 12.5993 304.029 29.7044C258.425 46.8094 214.844 71.2665 176.333 101.807C137.822 132.348 107.065 166.1 80.5955 205.113C54.3821 243.747 34.0344 286.348 20.3749 330.986C6.648 375.826 -0.282886 422.798 0.000282794 469.702C0.296936 517.712 8.15824 565.682 23.1931 611.278C38.5517 657.885 61.1917 702.131 90.2771 741.657C118.365 779.819 152.237 813.503 190.519 841.427C228.8 869.351 270.264 890.719 314.493 905.855C358.734 921.004 405.309 929.448 452.045 930.797C500.197 932.2 548.579 926.022 594.843 912.613C642.388 898.84 687.844 877.567 728.782 849.724C768.021 823.027 803.134 790.368 832.489 753.083C861.278 716.525 884.511 675.826 901.38 632.443C918.329 588.83 928.631 542.682 931.881 496.007C935.198 448.361 931.018 400.216 919.61 353.838C913.907 330.662 906.369 307.959 897.2 285.93C895.555 281.978 889.028 283.718 890.7 287.724L890.714 287.738Z" fill="white" fill-opacity="0.05"/>
</g>
<defs>
<clipPath id="clip0_3571_2322">
<rect width="933" height="931" fill="white"/>
</clipPath>
</defs>
</svg>
